<svg width="60" height="60" viewBox="0 0 60 60" fill="none" xmlns="http://www.w3.org/2000/svg">
  <circle cx="30" cy="30" r="28" fill="#E6E6E6"/>
  <path d="M30 15C22.268 15 16 21.268 16 29C16 33.7628 18.5424 37.9365 22.1421 40.4721C22.6101 40.8447 23.2658 40.8447 23.7338 40.4721C24.2018 40.0995 24.2018 39.4438 23.7338 39.0712C20.6607 36.8428 19 33.2813 19 29C19 22.9249 24.4772 18 31 18V15H30Z" fill="#C4C4C4"/>
  <path d="M30 28C26.6863 28 24 30.6863 24 34C24 37.3137 26.6863 40 30 40C33.3137 40 36 37.3137 36 34C36 30.6863 33.3137 28 30 28Z" fill="#C4C4C4"/>
  <path d="M30 28C32.7614 28 35 30.2386 35 33.5V36.5C35 39.7614 32.7614 42 30 42C27.2386 42 25 39.7614 25 36.5V33.5C25 30.2386 27.2386 28 30 28Z" fill="#A67D4F"/>
</svg>